HIERARCHY
ROOT Hips
{
	OFFSET 0.000000 0.000000 0.000000 
	CHANNELS 6 Xposition Yposition Zposition Zrotation Yrotation Xrotation
	JOINT LeftUpLeg
	{
		OFFSET 1.363060 -1.794630 0.839290 
		CHANNELS 3 Zrotation Yrotation Xrotation
		JOINT LeftLeg
		{
			OFFSET 2.448110 -6.726130 0.000000 
			CHANNELS 3 Zrotation Yrotation Xrotation
			JOINT LeftFoot
			{
				OFFSET 2.562200 -7.039590 0.000000 
				CHANNELS 3 Zrotation Yrotation Xrotation
				JOINT LeftToeBase
				{
					OFFSET 0.157640 -0.433110 2.322550 
					CHANNELS 3 Zrotation Yrotation Xrotation
					End Site
					{
						OFFSET 0.000000 0.000000 0.000000 
					}
				}
			}
		}
	}
	JOINT RightUpLeg
	{
		OFFSET -1.305520 -1.794630 0.839290 
		CHANNELS 3 Zrotation Yrotation Xrotation
		JOINT RightLeg
		{
			OFFSET -2.542530 -6.985550 0.000000 
			CHANNELS 3 Zrotation Yrotation Xrotation
			JOINT RightFoot
			{
				OFFSET -2.568260 -7.056230 0.000000 
				CHANNELS 3 Zrotation Yrotation Xrotation
				JOINT RightToeBase
				{
					OFFSET -0.164730 -0.452590 2.363150 
					CHANNELS 3 Zrotation Yrotation Xrotation
					End Site
					{
						OFFSET 0.000000 0.000000 0.000000 
					}
				}
			}
		}
	}
	JOINT Spine
	{
		OFFSET 0.028270 2.035590 -0.193380 
		CHANNELS 3 Zrotation Yrotation Xrotation
		JOINT Spine1
		{
			OFFSET 0.056720 2.048850 -0.042750 
			CHANNELS 3 Zrotation Yrotation Xrotation
			JOINT Neck1
			{
				OFFSET -0.054170 1.746240 0.172020 
				CHANNELS 3 Zrotation Yrotation Xrotation
				JOINT Head
				{
					OFFSET 0.104070 1.761360 -0.123970 
					CHANNELS 3 Zrotation Yrotation Xrotation
					End Site
					{
						OFFSET 0.000000 0.000000 0.000000 
					}
				}
			}
			JOINT LeftArm
			{
				OFFSET 3.362410 1.200890 -0.311210 
				CHANNELS 3 Zrotation Yrotation Xrotation
				JOINT LeftForeArm
				{
					OFFSET 4.983000 -0.000000 -0.000000 
					CHANNELS 3 Zrotation Yrotation Xrotation
					JOINT LeftHand
					{
						OFFSET 3.483560 -0.000000 -0.000000 
						CHANNELS 3 Zrotation Yrotation Xrotation
						JOINT LeftHandIndex1
						{
							OFFSET 0.715260 -0.000000 -0.000000 
							CHANNELS 3 Zrotation Yrotation Xrotation
							End Site
							{
								OFFSET 0.000000 0.000000 0.000000 
							}
						}
					}
				}
			}
			JOINT RightArm
			{
				OFFSET -3.136600 1.374050 -0.404650 
				CHANNELS 3 Zrotation Yrotation Xrotation
				JOINT RightForeArm
				{
					OFFSET -5.241900 -0.000000 -0.000000 
					CHANNELS 3 Zrotation Yrotation Xrotation
					JOINT RightHand
					{
						OFFSET -3.444170 -0.000000 -0.000000 
						CHANNELS 3 Zrotation Yrotation Xrotation
						JOINT RightHandIndex1
						{
							OFFSET -0.622530 -0.000000 -0.000000 
							CHANNELS 3 Zrotation Yrotation Xrotation
							End Site
							{
								OFFSET 0.000000 0.000000 0.000000 
							}
						}
					}
				}
			}
		}
	}
}
MOTION
Frames: 15
Frame Time: 0.041667
-0.734445 18.311605 5.887519 -5.964241 -3.418902 1.116754 -9.492798 -11.213428 -4.680308 0.988255 7.137808 23.817790 -0.934144 9.299961 -18.869207 8.218700 -16.277800 -53.346800 3.071493 1.901858 -1.652619 0.012773 0.718328 1.410230 0.307043 -0.896596 5.802843 0.000000 0.000000 0.000000 6.792796 -1.237338 27.061705 -4.373383 0.263339 -12.840779 4.696411 -2.183435 31.167836 1.093400 -0.294900 10.337200 -87.306323 14.069384 41.697207 68.585043 -56.897513 -37.141963 0.534967 0.915308 -11.133629 -7.125000 0.000000 0.000000 91.798349 -15.922337 31.039218 -64.417497 56.211376 -29.480887 2.152537 -1.621711 -0.517711 7.125000 0.000000 0.000000 
-0.710228 18.304448 5.876146 -6.729392 -3.258255 0.893333 -8.798763 -11.050726 -4.690722 1.038043 7.219199 24.030620 -0.890526 9.038982 -18.638037 8.235200 -16.289600 -53.405500 3.076586 1.907621 -1.654287 0.010293 0.722225 1.413397 0.308380 -0.892476 5.805189 0.000000 0.000000 0.000000 7.563999 -1.460479 27.035173 -5.116827 0.055315 -13.096664 4.544099 -2.173416 32.153857 1.054200 -0.279800 10.601200 -86.892772 14.121241 42.584887 73.445807 -57.426895 -41.175540 0.522017 0.949137 -11.727768 -7.125000 0.000000 0.000000 91.279944 -16.093100 32.085026 -69.153142 56.832204 -32.946708 2.213910 -1.377521 -2.575165 7.125000 0.000000 0.000000 
-0.733464 18.310134 5.881832 -6.046981 -3.364350 1.024457 -9.415097 -11.143492 -4.684972 1.005237 7.161415 23.893457 -0.927584 9.243684 -18.791546 8.218600 -16.277700 -53.346200 3.074831 1.901067 -1.656303 0.012540 0.716373 1.409539 0.306197 -0.898598 5.802219 0.000000 0.000000 0.000000 6.902297 -1.319091 27.029166 -4.351635 0.226912 -13.004901 4.249867 -2.115693 33.126345 1.014400 -0.277000 10.864000 -86.536560 14.075997 43.555034 78.493517 -57.624736 -45.491434 0.470182 0.965691 -12.529900 -7.125000 0.000000 0.000000 90.582486 -16.214422 33.413405 -74.151440 57.083020 -36.772602 2.252106 -1.156676 -3.987931 7.125000 0.000000 0.000000 
-0.740229 18.312193 5.881832 -5.808070 -3.451370 1.031220 -9.634006 -11.110203 -4.672763 0.999966 7.150644 23.875584 -0.935085 9.295983 -18.846997 8.222200 -16.280300 -53.359000 3.072739 1.898858 -1.656446 0.013574 0.714637 1.408295 0.305446 -0.900344 5.801050 0.000000 0.000000 0.000000 6.563243 -1.247256 27.035983 -4.049416 0.292281 -13.042989 3.991235 -2.011708 33.922845 0.974800 -0.248000 11.079500 -86.208460 13.970324 44.490940 83.540632 -57.584131 -49.952362 0.397321 0.980063 -13.325147 -7.125000 0.000000 0.000000 89.819367 -16.208868 34.889918 -78.825574 56.923807 -40.515380 2.254494 -0.982733 -4.062065 7.125000 0.000000 0.000000 
-0.738955 18.313762 5.877518 -5.839454 -3.461849 1.064506 -9.595424 -11.171623 -4.624938 0.975514 7.113361 23.753129 -0.956867 9.389655 -18.884828 8.228000 -16.284400 -53.379700 3.072364 1.898299 -1.657324 0.013900 0.713820 1.408122 0.305113 -0.900972 5.800365 0.000000 0.000000 0.000000 6.402479 -1.230064 26.952531 -4.011666 0.284430 -13.117483 3.920582 -1.993590 34.798652 0.969200 -0.228700 11.323600 -85.861083 13.853989 45.322191 88.311440 -57.351641 -54.329587 0.307945 0.990796 -13.893832 -7.125000 0.000000 0.000000 88.957159 -16.080542 36.682943 -83.393121 56.440059 -44.398630 2.221932 -0.836021 -3.864247 7.125000 0.000000 0.000000 
-0.737484 18.314056 5.872224 -5.853305 -3.497316 1.049480 -9.555563 -11.223663 -4.589909 0.965087 7.104450 23.717873 -0.977133 9.496563 -18.967673 8.242200 -16.294600 -53.430600 3.066098 1.899579 -1.653651 0.014622 0.716320 1.409119 0.305790 -0.898165 5.800530 0.000000 0.000000 0.000000 6.057102 -1.176948 27.012852 -3.949417 0.286352 -13.205210 4.018424 -2.088295 35.622237 0.989000 -0.236500 11.572100 -85.535048 13.656696 46.021894 92.654870 -57.011183 -58.433342 0.208675 0.995810 -14.093315 -7.125000 0.000000 0.000000 88.103940 -15.854062 38.586837 -87.776927 55.725164 -48.355067 2.154880 -0.725913 -3.816426 7.125000 0.000000 0.000000 
-0.735033 18.313272 5.868204 -5.771199 -3.531190 0.957458 -9.603179 -11.138371 -4.551484 0.965775 7.100631 23.712151 -0.982686 9.505565 -18.935662 8.252900 -16.302200 -53.468700 3.055756 1.901940 -1.646292 0.015613 0.721202 1.410738 0.307132 -0.893035 5.801477 0.000000 0.000000 0.000000 5.584016 -1.139884 27.219947 -3.830410 0.281321 -13.316083 4.254078 -2.142420 36.077026 1.059400 -0.219100 11.715400 -85.336989 13.377059 46.523836 96.626334 -56.621895 -62.259951 0.102169 0.999794 -13.958142 -7.125000 0.000000 0.000000 87.182224 -15.466900 40.433643 -91.440492 54.980027 -51.857316 2.060300 -0.692365 -3.399465 7.125000 0.000000 0.000000 
-0.734445 18.312095 5.866930 -5.677356 -3.658677 0.869690 -9.680151 -10.945167 -4.502802 0.970360 7.093357 23.706544 -0.962281 9.412222 -18.889115 8.231400 -16.286900 -53.392100 3.049141 1.902741 -1.641429 0.016401 0.723847 1.411345 0.307786 -0.890339 5.801959 0.000000 0.000000 0.000000 5.257368 -1.087672 27.379428 -3.689958 0.303078 -13.398711 4.292192 -2.114920 36.234362 1.084800 -0.203000 11.746000 -85.230946 13.074213 46.905115 100.331246 -56.197335 -65.870728 -0.010178 1.001479 -13.828189 -7.125000 0.000000 0.000000 86.147841 -14.942689 42.222208 -94.619061 54.269604 -55.117724 1.948298 -0.709783 -1.508714 7.125000 0.000000 0.000000 
-0.735523 18.310428 5.866145 -5.690282 -3.969691 0.769623 -9.678160 -10.685933 -4.390661 0.973402 7.081975 23.693749 -0.934487 9.317216 -18.914398 8.172500 -16.244600 -53.181500 3.045802 1.902922 -1.638856 0.016815 0.725099 1.411470 0.308100 -0.889143 5.802267 0.000000 0.000000 0.000000 5.160195 -0.973218 27.526442 -3.617746 0.369416 -13.474939 4.109874 -2.099134 36.341025 1.036700 -0.222800 11.759500 -85.124176 12.695948 47.278427 103.808074 -55.746060 -69.270022 -0.119079 1.000920 -13.859310 -7.125000 0.000000 0.000000 85.066892 -14.238227 43.760537 -98.189538 53.452470 -58.989135 1.806704 -0.637219 -1.006817 7.125000 0.000000 0.000000 
-0.729346 18.308075 5.863498 -5.684658 -4.136381 0.599767 -9.689031 -10.606469 -4.196978 0.971382 7.075597 23.681690 -0.933709 9.339385 -18.975164 8.152900 -16.230600 -53.111600 3.037204 1.904870 -1.632655 0.017654 0.729097 1.412950 0.309323 -0.884843 5.802956 0.000000 0.000000 0.000000 4.761385 -0.866296 27.645867 -3.571281 0.387754 -13.607129 4.179028 -2.199072 36.540071 1.045300 -0.258400 11.793200 -84.995285 12.317770 47.607641 107.029587 -55.277651 -72.413878 -0.217964 1.003157 -13.978369 -7.125000 0.000000 0.000000 83.962837 -13.489616 45.129706 -101.616712 52.656606 -62.822599 1.635748 -0.557007 -1.384759 7.125000 0.000000 0.000000 
-0.739249 18.308958 5.863302 -5.583365 -3.326813 0.584708 -9.653762 -10.820965 -4.339863 0.985785 7.073894 23.674378 -0.919063 9.097234 -18.499931 8.231000 -16.286600 -53.390500 3.040252 1.902093 -1.635162 0.017933 0.725984 1.411305 0.307961 -0.888184 5.801895 0.000000 0.000000 0.000000 4.595265 -1.211020 27.534580 -3.349603 0.217126 -13.622234 4.552283 -2.389266 36.787807 1.147600 -0.300500 11.826200 -84.889871 11.990626 47.814374 109.902281 -54.806988 -75.213266 -0.310259 1.002927 -14.152165 -7.125000 0.000000 0.000000 82.839497 -12.657767 46.216959 -105.000450 51.880446 -66.660941 1.432918 -0.451204 -2.621330 7.125000 0.000000 0.000000 
-0.740131 18.306311 5.864380 -5.645257 -3.233468 0.473392 -9.577928 -10.577241 -4.339686 1.000580 7.071381 23.688099 -0.897440 8.925026 -18.268685 8.266100 -16.311500 -53.515500 3.044317 1.901269 -1.636728 0.017344 0.724852 1.410524 0.307363 -0.889749 5.802231 0.000000 0.000000 0.000000 4.844858 -1.390650 27.613664 -3.361887 0.138145 -13.663653 4.978412 -2.528491 36.940779 1.292600 -0.325400 11.856300 -84.996557 11.639554 47.821227 112.516374 -54.336832 -77.721249 -0.388260 1.003874 -14.372223 -7.125000 0.000000 0.000000 81.548727 -11.624766 47.294440 -107.659910 51.310073 -69.699203 1.261556 -0.400230 -2.876995 7.125000 0.000000 0.000000 
-0.737876 18.305722 5.861733 -5.687981 -3.344436 0.423969 -9.553345 -10.433812 -4.317257 1.005058 7.073288 23.698747 -0.893414 8.896170 -18.234283 8.258200 -16.305900 -53.487400 3.046825 1.900188 -1.637518 0.017150 0.723623 1.409961 0.306844 -0.891140 5.802081 0.000000 0.000000 0.000000 4.908936 -1.426968 27.533988 -3.375563 0.110911 -13.708677 5.263727 -2.637333 36.998006 1.393500 -0.357300 11.826000 -85.082220 11.301431 47.861428 114.858567 -53.870576 -79.949367 -0.456142 1.004350 -14.660882 -7.125000 0.000000 0.000000 80.245177 -10.653215 48.664155 -109.597332 50.922861 -71.987630 1.172511 -0.424931 -2.300816 7.125000 0.000000 0.000000 
-0.736798 18.308566 5.856733 -5.519008 -3.316087 0.484831 -9.566624 -10.468295 -4.451273 1.005153 7.087624 23.703468 -0.889339 8.870711 -18.201710 8.246300 -16.297400 -53.445000 3.023210 1.904163 -1.621702 0.019985 0.732861 1.413451 0.309628 -0.880872 5.802849 0.000000 0.000000 0.000000 3.607696 -1.146550 27.579505 -3.084747 0.168392 -13.720214 5.407229 -2.889671 36.935511 1.367900 -0.441700 11.781400 -84.797747 10.773991 48.224754 116.822118 -53.439404 -81.804225 -0.513531 1.004293 -14.912863 -7.125000 0.000000 0.000000 79.342330 -9.593765 49.359542 -111.976127 50.440520 -74.719027 1.045834 -0.360775 -3.269101 7.125000 0.000000 0.000000 
-0.736602 18.312683 5.849478 -5.360730 -3.294614 0.635219 -9.573117 -10.509523 -4.686171 1.004336 7.101977 23.707960 -0.891046 8.864380 -18.164694 8.247800 -16.298500 -53.450500 3.000662 1.908259 -1.607082 0.022616 0.741868 1.416726 0.312210 -0.870964 5.803716 0.000000 0.000000 0.000000 2.436158 -0.891039 27.692420 -2.787902 0.228655 -13.715344 5.617766 -3.165388 36.957727 1.366100 -0.525000 11.817200 -84.571660 10.115542 48.524511 118.452837 -53.058881 -83.324807 -0.557512 1.003855 -14.987012 -7.125000 0.000000 0.000000 78.447801 -8.317898 49.337305 -114.018990 50.054174 -76.961678 0.918530 -0.303257 -2.248761 7.125000 0.000000 0.000000 
